<?xml version="1.0" encoding="utf-8"?>
<!-- Generator: Adobe Illustrator 21.1.0, SVG Export Plug-In . SVG Version: 6.00 Build 0)  -->
<svg version="1.1" id="Layer_1" xmlns="http://www.w3.org/2000/svg" xmlns:xlink="http://www.w3.org/1999/xlink" x="0px" y="0px"
	 viewBox="0 0 14.9 28.4" style="enable-background:new 0 0 14.9 28.4;" xml:space="preserve">
<style type="text/css">
	.st0{clip-path:url(#SVGID_2_);}
	.st1{fill:none;stroke:#FB1473;stroke-width:0.9921;}
</style>
<title>Asset 1</title>
<g>
	<g>
		<defs>
			<rect id="SVGID_1_" width="14.9" height="28.4"/>
		</defs>
		<clipPath id="SVGID_2_">
			<use xlink:href="#SVGID_1_"  style="overflow:visible;"/>
		</clipPath>
		<g class="st0">
			<path class="st1" d="M9.6,10.7h4.7l-0.6,4.6H9.6c-0.1,0-0.2,0.1-0.2,0.2V28H4.7V15.4c0-0.1-0.1-0.2-0.2-0.2H0.4v-4.6h4.1
				c0.1,0,0.2-0.1,0.2-0.2V6.8c0-4,2.3-6.4,6.2-6.4c1.6,0,3,0.1,3.6,0.2v4.1h-2.4C9.8,4.7,9.4,6,9.4,7.3v3.2
				C9.4,10.6,9.5,10.7,9.6,10.7L9.6,10.7 M12.1,5.1h2.6C14.9,5.1,15,5,15,4.9V0.4c0-0.1-0.1-0.2-0.2-0.2C13.5,0.1,12.2,0,10.9,0
				C6.8,0,4.3,2.6,4.3,6.8v3.5H0.2c-0.1,0-0.2,0.1-0.2,0.2v5c0,0.1,0.1,0.2,0.2,0.2l0,0h4.1v12.5c0,0.1,0.1,0.2,0.2,0.2h5.1
				c0.1,0,0.2-0.1,0.2-0.2V15.6h4.1c0.1,0,0.2-0.1,0.2-0.2l0.6-5c0-0.1,0-0.1-0.1-0.2l-0.1-0.1H9.8v-3C9.8,5.8,10.2,5,12.1,5.1"/>
		</g>
	</g>
</g>
</svg>
