<?xml version="1.0" encoding="utf-8"?>
<!-- Generator: Adobe Illustrator 21.1.0, SVG Export Plug-In . SVG Version: 6.00 Build 0)  -->
<svg version="1.1" id="Layer_1" xmlns="http://www.w3.org/2000/svg" xmlns:xlink="http://www.w3.org/1999/xlink" x="0px" y="0px"
	 viewBox="0 0 28.4 28.4" style="enable-background:new 0 0 28.4 28.4;" xml:space="preserve">
<style type="text/css">
	.st0{clip-path:url(#SVGID_2_);}
	.st1{fill:#1D1D1B;stroke:#FB1473;stroke-width:0.9921;stroke-miterlimit:10;}
</style>
<title>Asset 2</title>
<g>
	<g>
		<defs>
			<rect id="SVGID_1_" width="28.4" height="28.4"/>
		</defs>
		<clipPath id="SVGID_2_">
			<use xlink:href="#SVGID_1_"  style="overflow:visible;"/>
		</clipPath>
		<g class="st0">
			<path class="st1" d="M24.8,7.8c0,0.5-0.4,0.8-0.8,0.8h-3.3c-0.5,0-0.8-0.4-0.8-0.8V4.5c0-0.5,0.4-0.8,0.8-0.8H24
				c0.5,0,0.8,0.4,0.8,0.8V7.8z M23.9,3.2h-3.3c-0.7,0-1.3,0.6-1.2,1.3v3.3C19.4,8.5,20,9,20.6,9h3.3c0.7,0,1.3-0.6,1.2-1.3V4.5
				C25.2,3.8,24.6,3.2,23.9,3.2"/>
			<path class="st1" d="M28,11.9h-8.8c-1.3-2.8-4.6-4-7.4-2.7c-1.2,0.6-2.2,1.5-2.7,2.7H0.4V2.7c0-1.2,1-2.2,2.2-2.2h23.1
				c1.2,0,2.3,1,2.3,2.2l0,0V11.9z M9,14.2C9,11.4,11.3,9,14.2,9s5.2,2.3,5.2,5.2s-2.3,5.2-5.2,5.2S9,17.1,9,14.2 M28,25.7
				c0,1.2-1,2.3-2.2,2.3l0,0H2.7c-1.2,0-2.3-1-2.3-2.3l0,0V12.3H9c-1.1,2.9,0.4,6.1,3.3,7.2s6.1-0.4,7.2-3.3c0.5-1.3,0.5-2.7,0-3.9
				H28V25.7z M25.7,0h-23C1.2,0,0,1.2,0,2.7v23.1c0,1.5,1.2,2.7,2.7,2.7h23.1c1.5,0,2.7-1.2,2.7-2.7V2.7C28.4,1.2,27.2,0,25.7,0"/>
		</g>
	</g>
</g>
</svg>
