<svg xmlns="http://www.w3.org/2000/svg" xmlns:xlink="http://www.w3.org/1999/xlink" viewBox="0 0 33.19 27.05"><defs><style>.a{fill:none;}.b{clip-path:url(#a);}.c{fill:#1d1d1b;}</style><clipPath id="a" transform="translate(-0.02)"><rect class="a" width="33.23" height="27.05"/></clipPath></defs><title>Asset 3</title><g class="b"><path class="c" d="M29.53,6.67a.2.2,0,0,0-.08.18c0,.29,0,.57,0,.86A18.75,18.75,0,0,1,10.53,26.64,18.86,18.86,0,0,1,1.07,24.1l.75,0a13.62,13.62,0,0,0,8.48-2.92.2.2,0,0,0-.12-.37,6.52,6.52,0,0,1-6-4.21A7,7,0,0,0,7,16.45a.2.2,0,0,0,0-.4A6.54,6.54,0,0,1,1.75,9.91a7,7,0,0,0,2.83.71.21.21,0,0,0,.2-.14.2.2,0,0,0-.08-.23A6.53,6.53,0,0,1,2.54,1.8,19.37,19.37,0,0,0,16.36,8.67a.19.19,0,0,0,.17-.07.2.2,0,0,0,0-.18A6.53,6.53,0,0,1,27.68,2.47a.2.2,0,0,0,.19.06,13.64,13.64,0,0,0,3.85-1.38A6.53,6.53,0,0,1,29,4.24a.21.21,0,0,0-.09.24.2.2,0,0,0,.22.14,13.69,13.69,0,0,0,3.26-.8,13.4,13.4,0,0,1-2.9,2.86m3.39-3.5A13.13,13.13,0,0,1,30,4.08,6.92,6.92,0,0,0,32.3.76a.21.21,0,0,0-.07-.22.2.2,0,0,0-.23,0A13.24,13.24,0,0,1,27.9,2.1,6.93,6.93,0,0,0,16,6.93a7,7,0,0,0,.12,1.31A19,19,0,0,1,2.67,1.31a.21.21,0,0,0-.18-.07.21.21,0,0,0-.16.1,6.94,6.94,0,0,0,1.56,8.82A6.55,6.55,0,0,1,1.64,9.4a.2.2,0,0,0-.3.18v.09A7,7,0,0,0,6,16.23a6.52,6.52,0,0,1-2.11-.06.21.21,0,0,0-.19.07.2.2,0,0,0,0,.2,6.93,6.93,0,0,0,5.91,4.78,13.2,13.2,0,0,1-7.78,2.5,13.58,13.58,0,0,1-1.58-.09.2.2,0,0,0-.22.13A.21.21,0,0,0,.11,24a19.27,19.27,0,0,0,10.42,3.05,18.53,18.53,0,0,0,14.36-6.3,20,20,0,0,0,5-13c0-.26,0-.51,0-.77a13.82,13.82,0,0,0,3.32-3.47.21.21,0,0,0-.25-.3" transform="translate(-0.02)"/></g></svg>