<svg xmlns="http://www.w3.org/2000/svg" xmlns:xlink="http://www.w3.org/1999/xlink" viewBox="0 0 24.09 29.42"><defs><style>.a{fill:none;}.b{clip-path:url(#a);}.c{fill:#1d1d1b;}</style><clipPath id="a" transform="translate(0 -0.03)"><rect class="a" width="24.09" height="29.45"/></clipPath></defs><title>Asset 4</title><g class="b"><path class="c" d="M.41,20.06a35.5,35.5,0,0,1,.23-3.79A4.92,4.92,0,0,1,1.53,14a3.05,3.05,0,0,1,2.09-.92l.15,0C7,12.88,12,12.87,12,12.87s5,0,8.26.24l.16,0a3.05,3.05,0,0,1,2.1.92,4.89,4.89,0,0,1,.88,2.22,35.53,35.53,0,0,1,.24,3.79v1.79a35.47,35.47,0,0,1-.24,3.79,4.9,4.9,0,0,1-.89,2.23,3,3,0,0,1-2.09.92l-.15,0C17.05,29,12.09,29,12,29S5.88,29,4,28.81l-.34,0a3.32,3.32,0,0,1-2.17-.9,4.91,4.91,0,0,1-.88-2.22,35.74,35.74,0,0,1-.23-3.79Zm.83,8.08a3.73,3.73,0,0,0,2.41,1l.33,0c1.88.18,8,.24,8.07.24s5,0,8.31-.25h.15a3.46,3.46,0,0,0,2.35-1,5.23,5.23,0,0,0,1-2.46,36.19,36.19,0,0,0,.24-3.84V20.06a36.21,36.21,0,0,0-.24-3.84h0a5.21,5.21,0,0,0-1-2.45,3.46,3.46,0,0,0-2.35-1l-.16,0c-3.28-.24-8.25-.24-8.31-.24s-5,0-8.31.24l-.15,0a3.46,3.46,0,0,0-2.35,1,5.22,5.22,0,0,0-1,2.46A35.75,35.75,0,0,0,0,20.06v1.79a36,36,0,0,0,.24,3.84,5.23,5.23,0,0,0,1,2.45" transform="translate(0 -0.03)"/><path class="c" d="M6.79,6v4.9a.2.2,0,1,0,.41,0V6L9.54.31A.21.21,0,0,0,9.16.16L7,5.45,4.83.16a.2.2,0,0,0-.38.16Z" transform="translate(0 -0.03)"/><path class="c" d="M10.07,5.55a3,3,0,0,1,.44-1.79A1.7,1.7,0,0,1,12,3.08a1.79,1.79,0,0,1,1.5.69,3,3,0,0,1,.43,1.78V8.4a2.81,2.81,0,0,1-.4,1.72,1.92,1.92,0,0,1-1.53.75,1.89,1.89,0,0,1-1.52-.75,2.77,2.77,0,0,1-.41-1.72ZM12,11.28a2.34,2.34,0,0,0,1.86-.92,3.16,3.16,0,0,0,.49-2V5.55a3.4,3.4,0,0,0-.52-2A2.19,2.19,0,0,0,12,2.67a2.11,2.11,0,0,0-1.83.85,3.34,3.34,0,0,0-.52,2V8.4a3.13,3.13,0,0,0,.49,2,2.3,2.3,0,0,0,1.85.92" transform="translate(0 -0.03)"/><path class="c" d="M17.36,11.28c1.21,0,2-1.17,2.35-1.91v1.56a.21.21,0,0,0,.41,0V3.11a.21.21,0,1,0-.41,0V7.78a3.57,3.57,0,0,1-.19,1c-.4,1-1.17,2.07-2.16,2.07a1.53,1.53,0,0,1-1.12-.36,1.62,1.62,0,0,1-.4-1.29V3.11a.21.21,0,1,0-.41,0v6.1a2,2,0,0,0,.51,1.57,1.89,1.89,0,0,0,1.43.49" transform="translate(0 -0.03)"/><path class="c" d="M18.48,20.77a3,3,0,0,1,.39-1.69,1.58,1.58,0,0,1,1.37-.7,1.55,1.55,0,0,1,1.34.7A2.92,2.92,0,0,1,22,20.74v.77H18.48Zm1.79,5.35A1.93,1.93,0,0,0,22,25.21a2.22,2.22,0,0,0,.33-.91v-.06c0-.16,0-.45,0-.84a.2.2,0,1,0-.41,0c0,.37,0,.66,0,.81v.05a1.83,1.83,0,0,1-.27.74,1.54,1.54,0,0,1-1.38.72A1.59,1.59,0,0,1,18.89,25a2.75,2.75,0,0,1-.41-1.62V21.92h3.68a.21.21,0,0,0,.21-.21v-1a3.3,3.3,0,0,0-.45-1.89A2,2,0,0,0,20.24,18a2,2,0,0,0-1.7.87,3.36,3.36,0,0,0-.47,1.93v2.64a3.13,3.13,0,0,0,.48,1.86,2,2,0,0,0,1.71.86" transform="translate(0 -0.03)"/><path class="c" d="M1.93,15.93H4.09v10a.2.2,0,1,0,.41,0v-10H6.67a.2.2,0,1,0,0-.41H1.93a.2.2,0,1,0,0,.41" transform="translate(0 -0.03)"/><path class="c" d="M6.65,18.37v5.8a1.93,1.93,0,0,0,.49,1.5,1.81,1.81,0,0,0,1.36.47c1.13,0,1.86-1.07,2.22-1.78V25.8a.21.21,0,1,0,.41,0V18.37a.21.21,0,0,0-.41,0V22.8a3.37,3.37,0,0,1-.18,1c-.13.33-.84,2-2,2a1.45,1.45,0,0,1-1.06-.34,1.54,1.54,0,0,1-.38-1.22v-5.8a.2.2,0,1,0-.41,0" transform="translate(0 -0.03)"/><path class="c" d="M13.27,19a2.25,2.25,0,0,1,1.55-.75,1.1,1.1,0,0,1,1.12.74,4.23,4.23,0,0,1,.21,1.43v3A4.58,4.58,0,0,1,16,24.9a1.15,1.15,0,0,1-1.16.72,2.24,2.24,0,0,1-1.55-.76Zm-.2,7a.21.21,0,0,0,.2-.2v-.41a2.47,2.47,0,0,0,1.55.62,1.54,1.54,0,0,0,1.55-1,5.06,5.06,0,0,0,.19-1.57v-3a4.65,4.65,0,0,0-.23-1.58,1.5,1.5,0,0,0-1.51-1,2.48,2.48,0,0,0-1.55.61V15.73a.21.21,0,1,0-.41,0V25.82a.21.21,0,0,0,.21.2" transform="translate(0 -0.03)"/></g></svg>