<svg id="Layer_1" data-name="Layer 1" xmlns="http://www.w3.org/2000/svg" viewBox="0 0 490.45 488.62"><defs><style>.cls-1{fill:#fff;}</style></defs><title>close</title><g id="HdhFGH.tif"><path class="cls-1" d="M501.23,101.38c-3.56,6.45-5.51,12.66-9.55,16.86C455.33,156,418.6,193.49,382,231c-2,2.07-4,4.15-6,6.31-12.41,13.79-12.53,23.59-.13,37.22,7.41,8.14,15.09,16,22.78,23.92,31,31.72,62.08,63.31,93,95.11C501.71,404,502.06,420,492,430.33q-31.29,32-63.46,63.12c-9.68,9.38-25.72,9-35.32-.28Q335.46,437.2,277.95,381a95.41,95.41,0,0,0-9.86-8.5c-8.79-6.47-17.94-6.74-26.32.31-10,8.37-19.41,17.4-28.75,26.48-32.2,31.31-64.18,62.84-96.4,94.12-9.12,8.85-24.68,9.32-33.72.43q-33.45-32.89-66-66.68a22,22,0,0,1,.21-30.7c26.65-27.83,53.62-55.36,80.47-83,11.91-12.26,24-24.38,35.71-36.81,15-15.94,15.14-24.39,0-40-24.38-25.19-49.09-50.07-73.61-75.13-12.77-13-25.19-26.44-38.2-39.24-12.8-12.6-14.19-28.06-.88-41C42,60.42,62.9,39.17,84.4,18.5c8.74-8.4,21.36-8.63,30.76-.8,9.56,8,18.59,16.58,27.49,25.29q45.68,44.68,91.12,89.59a95.07,95.07,0,0,0,9.16,8c8.15,6.17,17.74,6.49,25.48-.13,9.9-8.46,19.33-17.49,28.68-26.57,32.2-31.3,64.14-62.88,96.48-94C404.75,9.06,417,8.94,428.17,19.69c21.31,20.45,42.32,41.24,62.81,62.5C495.57,86.94,497.53,94.24,501.23,101.38Z" transform="translate(-10.77 -11.69)"/></g></svg>